<?xml version="1.0" encoding="utf-8"?>
<!-- Generator: Adobe Illustrator 27.3.1, SVG Export Plug-In . SVG Version: 6.00 Build 0)  -->
<svg version="1.1" id="Layer_1" xmlns="http://www.w3.org/2000/svg" xmlns:xlink="http://www.w3.org/1999/xlink" x="0px" y="0px"
	 viewBox="0 0 1500 1000" style="enable-background:new 0 0 1500 1000;" xml:space="preserve">
<style type="text/css">
	.st0{fill:#FEDF00;}
	.st1{fill:#E61B0C;}
	.st2{fill:#272726;}
</style>
<g>
	<path class="st0" d="M1273.84,603.91H226.16c-57.39,0-103.91-46.52-103.91-103.91v0c0-57.39,46.52-103.91,103.91-103.91h1047.67
		c57.39,0,103.91,46.52,103.91,103.91v0C1377.74,557.39,1331.22,603.91,1273.84,603.91z"/>
	<path class="st1" d="M324.82,398.96c-0.75,0.87-1.51,1.74-2.47,2.85c-1.5-3.07-3.57-2.94-5.42-1.26
		c-6.48,5.86-13.15,11.56-19.13,17.91c-5.99,6.37-11.65,13.13-16.7,20.26c-12.38,17.51-20.99,36.97-28.06,57.13
		c-7.48,21.31-13.14,43.11-17.35,65.28c-2.72,14.34-5.05,28.75-7.52,43.13c-0.16,0.93-0.03,1.9-0.04,2.85
		c-0.53,2.73-1.06,5.46-1.62,8.35c-9.53,0-19.04,0-28.95,0c0.23-1.94,0.35-3.85,0.69-5.72c1.24-6.81,2.31-13.68,3.9-20.41
		c2.82-11.91,5.84-23.77,9.06-35.58c2.14-7.84,4.5-15.64,7.21-23.29c5.23-14.76,10.84-29.36,17.72-43.47
		c15.29-31.35,35.24-59.01,62.75-80.81c4.88-3.87,10.13-7.28,15.21-10.91c0.39-0.28,0.75-0.61,1.66-1.35
		c-2.12-0.24-3.63-0.42-5.16-0.59c5.8-6.65,13.53-8.38,22.93-8.81C330.39,389.74,327.61,394.35,324.82,398.96z"/>
	<path class="st1" d="M303.17,454.06c2.84-3.35,5.68-6.71,8.53-10.05c1.73-2.03,3.49-4.05,5.48-6.36c-3.5-2.71-6.73-5.22-9.96-7.72
		c0.15-0.17,0.31-0.34,0.46-0.51c5.14,0.04,10.29-0.52,15.43-0.39c1.87,0.05,3.04-0.05,3.84-1.74c1.85-3.9,3.8-7.75,5.75-11.6
		c0.38-0.74,0.94-1.39,1.66-2.44c0.3,5.22,0.58,9.92,0.87,14.97c6.13-0.41,12.05-0.81,17.96-1.21c0.08,0.29,0.15,0.58,0.23,0.87
		c-0.62,0.4-1.22,0.84-1.87,1.2c-4.49,2.51-8.96,5.06-13.51,7.46c-1.82,0.96-2.52,2.18-2.43,4.27c0.17,4.24,1.14,9.57,1.14,14.51
		c-0.97-0.94-2.63-2.59-3.21-3.15c-2.63-2.57-5.2-5.2-7.92-7.66c-0.43-0.39-1.64-0.35-2.26-0.04c-5.61,2.7-11.16,5.53-16.75,8.26
		c-1.11,0.54-2.32,0.88-3.48,1.31C303.13,454.02,303.17,454.06,303.17,454.06z"/>
	<g>
		<path class="st2" d="M522.9,447.47c1.07-0.3,2.14-0.88,3.2-0.87c17.03,0.27,34.12-0.17,51.06,1.2
			c13.26,1.07,17.4,6.77,17.03,20.04c-0.37,13.44-4.54,25.59-14.43,35.22c-1.88,1.83-4.01,3.48-6.23,4.88
			c-6.94,4.36-6.6,4.31-4.86,12.69c2.4,11.56,4.08,23.26,6.13,35.25c-9.01,0-17.71,0-26.91,0c-1.97-13.2-3.93-26.32-5.9-39.51
			c-1.69,0.1-3.43,0.4-5.13,0.25c-4.34-0.38-5.2,3.33-5.92,5.86c-1.64,5.76-2.09,11.85-3.56,17.67c-1.34,5.33-3.39,10.48-5.25,16.1
			c-8.63,0-17.13,0-26.78,0c9.58-36.11,20.2-71.92,28.95-108.2C523.84,447.85,523.37,447.66,522.9,447.47z M538.45,497.44
			c4.49,0,8.39,0.61,12.01-0.12c10.22-2.06,17.15-13.52,15.33-24.53c-0.92-5.55-2.42-6.79-8.16-6.8c-3.44,0-6.87,0-10.38,0
			C544.27,476.61,541.41,486.86,538.45,497.44z"/>
		<path class="st2" d="M1021.6,511.68c2.81,14.29,5.68,28.86,8.64,43.95c-9.18,0-18.13,0-27.5,0c-1.84-12.7-3.69-25.46-5.6-38.62
			c-2.3,0-5.03,0-8.4,0c-3.46,12.61-7,25.52-10.63,38.78c-8.73,0-17.55,0-26.86,0c2.05-7.66,3.99-15,5.97-22.34
			c2.08-7.68,4.19-15.35,6.3-23.02c3.25-11.82,6.52-23.65,9.78-35.47c2.32-8.39,4.52-16.81,7.08-25.12
			c0.43-1.39,2.45-3.24,3.75-3.25c14.22-0.14,28.46-0.19,42.67,0.27c4.32,0.14,8.75,1.5,12.84,3.06c8.31,3.18,9.63,6.75,9.82,15.51
			c0.22,9.56-2.01,18.27-6.2,26.6c-3.38,6.72-8.05,12.19-15.47,14.95C1025.57,507.82,1023.82,509.95,1021.6,511.68z M993.95,497.31
			c17.04,2.26,24.58-4.24,27-17.75c1.59-8.84,1.47-14.38-10.29-13.6c-2.6,0.17-5.23,0.03-8.03,0.03
			C999.71,476.53,996.88,486.77,993.95,497.31z"/>
		<path class="st2" d="M853.14,556.05c-8.65,0-17.06,0.08-25.46-0.11c-1-0.02-2.7-1.43-2.83-2.37c-0.89-6.27-1.55-12.58-2.08-18.9
			c-0.49-5.83-0.73-11.68-1.15-18.66c-4.27,5.89-8.06,10.82-11.51,15.98c-4.87,7.25-9.38,14.74-14.31,21.95
			c-0.81,1.19-2.93,2.03-4.47,2.07c-8.1,0.2-16.21,0.09-25.38,0.09c4.97-7.05,9.42-13.51,14.02-19.87
			c5.87-8.11,11.86-16.13,17.8-24.19c1.95-2.64,3.61-5.57,5.91-7.87c4.87-4.86,4.13-10.4,3.1-16.36
			c-1.68-9.68-2.76-19.46-4.36-29.16c-0.64-3.9-1.99-7.69-3.14-11.99c9.9,0,18.79,0,28.09,0c0.6,5.81,1.1,11.62,1.84,17.39
			c0.72,5.62,1.69,11.21,2.74,18.02c3.7-5.68,6.88-10.53,10.02-15.4c1.08-1.67,2.02-3.42,3.15-5.05c3.47-5.01,6.01-11.8,10.81-14.43
			c4.62-2.53,11.6-0.74,17.55-0.82c2.62-0.04,5.23-0.01,8.94-0.01c-1.75,2.58-2.93,4.44-4.22,6.23
			c-10.66,14.77-21.41,29.49-31.92,44.36c-1.18,1.67-1.75,4.35-1.45,6.39c1.93,13.29,4.19,26.52,6.33,39.78
			C851.8,547.31,852.43,551.47,853.14,556.05z"/>
		<path class="st2" d="M1150.94,523.59c-0.76,2.02-1.37,3.5-1.89,5.02c-1.86,5.48,1.93,10.91,7.72,10.85
			c7.54-0.08,12.07-4.14,13.81-9.13c1.99-5.71,1.13-9.57-3.99-12.91c-5.39-3.51-11.12-6.51-16.69-9.76
			c-15.2-8.88-16.1-19.36-10.05-35.57c5.3-14.2,16.47-22.7,30.75-25.3c10.8-1.97,22.36-2.45,32.97,2.57
			c7.28,3.44,10.92,11.39,9.24,19.33c-0.27,1.26-0.37,2.56-0.51,3.85c-0.75,7.04-0.85,7.06-8.02,7.36
			c-5.4,0.22-10.79,0.7-16.19,0.98c-2.91,0.15-4.27-0.64-3.2-4.13c0.79-2.58,0.55-5.55,0.35-8.31c-0.08-1.11-1.06-2.58-2.05-3.11
			c-4.28-2.3-12.05,0.17-14.94,4.52c-4.09,6.16-3.75,13.12,1.34,16.89c3.79,2.81,8.11,4.9,12.17,7.35
			c3.99,2.42,8.17,4.61,11.88,7.41c6.27,4.74,7.32,11.83,6.31,18.86c-1.76,12.2-7.25,22.31-17.82,29.57
			c-7.55,5.19-15.85,7.21-24.6,7.33c-6.84,0.1-13.88-0.24-20.51-1.77c-17.24-3.96-17.33-17.66-12.99-30.24
			c0.26-0.76,1.7-1.57,2.6-1.58C1134.53,523.54,1142.45,523.59,1150.94,523.59z"/>
		<path class="st2" d="M1271.1,481.22c0.32-2.83,0.3-4.82,0.81-6.66c0.97-3.49,1.3-7.96-2.04-8.91c-3.68-1.05-9.08-0.69-12.09,1.41
			c-7.1,4.96-9.1,15.35-0.11,20.99c4.61,2.9,9.5,5.36,14.21,8.09c15.01,8.71,16.72,13.09,12.25,31.45
			c-3.55,14.56-13.5,24.13-28.59,27.87c-12.52,3.11-24.9,2.51-37.3-0.34c-3.71-0.85-9.95-9.39-9.94-14.02
			c0.01-4.72,0.47-9.49,1.32-14.13c0.24-1.33,2.5-3.2,3.89-3.26c7.75-0.32,15.51-0.15,23.52-0.15c-0.45,2.63-1.02,4.85-1.18,7.09
			c-0.46,6.33,3.16,9.67,9.39,8.84c6.4-0.85,10.84-4.61,12.38-10.45c1.22-4.62,0.4-8.71-3.78-11.34c-3.71-2.33-8.05-3.71-11.56-6.27
			c-5.76-4.21-12.04-8.28-16.31-13.79c-4.47-5.77-3.5-13.27-1.44-20.35c5.73-19.62,22.18-30.97,41.68-31.09
			c6.56-0.04,13.3,0.13,19.64,1.58c9.11,2.08,12.92,7.92,12.74,17.28c-0.07,3.4-1.03,6.83-0.81,10.19c0.26,4.04-1.58,4.55-4.96,4.65
			C1285.68,480.09,1278.52,480.73,1271.1,481.22z"/>
		<path class="st2" d="M900.67,521.09c-2.65,10.29-5.45,20.68-7.94,31.15c-0.7,2.94-1.73,4.07-4.91,3.95
			c-7.58-0.27-15.17-0.09-23.65-0.09c3.47-12.38,6.76-24.13,10.05-35.87c1.5-5.36,2.98-10.73,4.48-16.09c3-10.7,6.1-21.37,8.97-32.1
			c2.05-7.68,3.67-15.46,5.77-23.13c0.29-1.06,2.18-2.41,3.32-2.41c14.72,0.06,29.47-0.09,44.15,0.81c4.91,0.3,9.99,2.85,14.35,5.44
			c4.55,2.7,6.55,7.3,6.73,13c0.49,15.67-3.32,29.81-13.94,41.59c-6.81,7.55-16.19,10.52-25.76,12.21
			C915.37,520.77,908.21,520.61,900.67,521.09z M906.6,500.61c4.8,0,8.67,0.52,12.34-0.1c9.94-1.69,13.02-9.96,14.44-18.04
			c2.14-12.18,1.78-17.04-12.63-16.57c-1.45,0.05-2.91,0.01-4.68,0.01C912.9,477.52,909.82,488.81,906.6,500.61z"/>
		<path class="st2" d="M735.83,512.62c-1.82,7.29-3.71,14.89-5.75,23.06c11.64,0,22.83,0,34.64,0c-1.76,6.59-3.24,12.6-5.07,18.5
			c-0.28,0.9-2.2,1.84-3.37,1.85c-18.37,0.21-36.74,0.27-55.11,0.38c-3.09,0.02-3.77-0.71-2.77-4.15c3.37-11.66,6-23.53,9.18-35.25
			c2.19-8.07,4.95-15.99,7.19-24.05c3.02-10.88,5.76-21.83,8.65-32.74c1.13-4.25,2.35-8.48,3.7-13.3c20.15,0,40.68,0,61.62,0
			c-1.7,6.38-3.14,12.46-5.06,18.38c-0.35,1.08-2.66,2.13-4.09,2.16c-8.93,0.23-17.88,0.26-26.81,0.14
			c-2.9-0.04-4.42,0.64-5.14,3.77c-1.47,6.39-3.44,12.67-5.36,19.59c9.95,0,19.47,0,29.66,0c-1.74,6.49-3.23,12.37-4.98,18.16
			c-0.28,0.93-1.74,2.06-2.72,2.12C754.88,511.82,745.53,512.18,735.83,512.62z"/>
		<path class="st2" d="M1085.71,511.53c-3.21-0.73-4.92,0.6-5.64,3.77c-1.5,6.6-3.15,13.17-4.87,20.3c11.47,0,22.8,0,34.85,0
			c-1.98,7.1-3.76,13.52-5.64,20.26c-20.12,0-40.24,0-61.69,0c9.97-36.56,19.83-72.7,29.76-109.11c20.72,0,41.1,0,61.84,0
			c-1.77,7-3.44,13.61-5.25,20.8c-11.82,0-23.65,0-35.16,0c-2.1,8.08-4.02,15.5-6.08,23.43c9.85,0,19.25,0,29.46,0
			c-2.03,7.08-3.88,13.57-5.88,20.54c-6.75,0-13.34,0-19.92-0.01C1089.57,511.51,1087.64,511.52,1085.71,511.53z"/>
		<path class="st2" d="M623.64,511.92c-2,6.86-3.94,13.75-6.03,20.58c-1.01,3.31,1.25,3.18,3.21,3.21
			c8.44,0.09,16.88,0.08,25.31,0.14c1.61,0.01,3.23,0.14,4.75,0.2c0.17,0.62,0.43,1.02,0.32,1.2c-3.08,4.97-1.78,11.16-4.48,16.18
			c-0.61,1.14-2.17,2.52-3.31,2.53c-19.34,0.16-38.68,0.11-59.45,0.11c2.8-9.37,5.53-18.14,8.01-26.98
			c1.24-4.42,1.78-9.04,3.02-13.46c5.68-20.24,11.53-40.43,17.23-60.66c2.4-8.5,2.3-8.53,11.36-8.53
			c15.22,0.01,30.44,0.02,45.66,0.03c1.96,0,3.92,0,6.58,0c-1.8,6.74-3.28,12.94-5.26,18.97c-0.33,1.01-2.79,1.84-4.29,1.88
			c-9.92,0.23-19.85,0.22-29.77,0.28c0,0,0.05,0.01,0.05,0.01c-1.16,3.26-2.39,6.5-3.48,9.79c-1.41,4.29-2.71,8.62-4.26,13.56
			c10.13,0,19.8,0,29.56,0c-1.29,5.95-2.17,11.44-3.81,16.7c-0.47,1.5-3,2.98-4.8,3.3c-3.37,0.61-6.9,0.36-10.36,0.46
			C634.17,511.6,628.91,511.76,623.64,511.92z"/>
		<path class="st2" d="M438.89,446.65c9.59,0,17.97,0,27.39,0c0,13.1,0,26,0,38.91c0.49,0.08,0.98,0.17,1.48,0.25
			c4.84-8.19,9.62-16.42,14.54-24.57c2.9-4.81,5-11.25,9.31-13.74c4.27-2.46,10.87-0.92,16.45-1.06c3.08-0.08,6.16-0.01,10.38-0.01
			c-8.37,12.25-16.02,23.46-23.67,34.67c-6.25,9.16-13.24,17.91-18.48,27.62c-4.18,7.75-6.45,16.59-9.13,25.08
			c-2.06,6.52-3.36,13.27-5.25,19.85c-0.29,1.02-1.9,2.34-2.93,2.37c-8.08,0.19-16.17,0.11-24.41,0.11c-0.1-1.26-0.41-2.13-0.2-2.85
			c3.88-13.19,8.27-26.26,11.49-39.61c1.17-4.85-0.26-10.39-0.8-15.58c-1.13-10.84-2.42-21.66-3.71-32.48
			C440.63,459.47,439.77,453.37,438.89,446.65z"/>
		<path class="st2" d="M429.4,467.97c-5.45,0-10.07,0-14.7,0c-6.8-0.01-7.63,0.66-9.19,7.19c-1.94,8.11-3.32,16.41-5.99,24.26
			c-6.29,18.45-9.49,37.73-15.59,56.39c-9.1,0-18.28,0-27.3,0c8.04-29.31,15.21-58.56,24.27-87.57c-7.61,0-14.6,0-22.65,0
			c1.35-5.48,3.09-10.83,3.9-16.33c0.71-4.79,3.15-5.53,7.37-5.49c19.52,0.18,39.04,0.07,58.56,0.06c2.13,0,4.26,0,7.66,0
			C433.48,454.13,431.43,461.09,429.4,467.97z"/>
		<path class="st2" d="M662.44,516.26c1.68-6.62,3.07-12.44,4.69-18.19c0.23-0.83,1.61-1.89,2.47-1.9
			c11.82-0.13,23.65-0.08,36.2-0.08c-1.8,6.56-3.36,12.42-5.06,18.24c-0.22,0.76-1.18,1.85-1.8,1.86
			C686.96,516.29,674.98,516.26,662.44,516.26z"/>
	</g>
</g>
</svg>
